<?xml version="1.0" encoding="UTF-8" standalone="no"?>
<svg
   xmlns:dc="http://purl.org/dc/elements/1.1/"
   xmlns:cc="http://creativecommons.org/ns#"
   xmlns:rdf="http://www.w3.org/1999/02/22-rdf-syntax-ns#"
   xmlns:svg="http://www.w3.org/2000/svg"
   xmlns="http://www.w3.org/2000/svg"
   id="svg8"
   version="1.1"
   viewBox="0 0 19.735926 16.163391"
   height="16.163391mm"
   width="19.735926mm">
  <defs
     id="defs2" />
  <metadata
     id="metadata5">
    <rdf:RDF>
      <cc:Work
         rdf:about="">
        <dc:format>image/svg+xml</dc:format>
        <dc:type
           rdf:resource="http://purl.org/dc/dcmitype/StillImage" />
        <dc:title></dc:title>
      </cc:Work>
    </rdf:RDF>
  </metadata>
  <g
     transform="translate(-20.346586,-25.256915)"
     id="layer1">
    <g
       style="fill:#93c42e;fill-opacity:1"
       transform="translate(5.4790253,4.2094948)"
       id="g4628">
      <g
         style="fill:#93c42e;fill-opacity:1"
         id="layer1-8"
         transform="translate(-21.422562,-10.773154)">
        <g
           id="g4565"
           transform="matrix(0.26458333,0,0,0.26458333,11.410457,45.187774)"
           style="opacity:1;fill:#93c42e;fill-opacity:1">
          <g
             style="fill:#93c42e;fill-opacity:1"
             id="g4508"
             transform="translate(-36.293701,-164.7636)">
            <g
               style="fill:#93c42e;fill-opacity:1"
               id="g4506">
              <path
                 style="opacity:1;fill:#93c42e;fill-opacity:1;stroke-width:1.00190735"
                 d="m 151.6421,175.33152 c 6.99237,-0.0336 15.02329,-5.73542 14.78762,-13.36579 -0.25884,-8.38082 -4.87624,-11.44749 -11.16378,-11.47038 -5.41814,-0.0197 -5.5195,1.14633 -9.08761,0.91933 -2.37294,-0.15096 -4.95687,-1.72518 -5.00777,-7.92282 -0.0613,-7.4614 5.15873,-12.61559 9.09246,-15.98401 2.57829,-2.20777 7.31934,-5.27131 10.56403,-7.1722 v -6.09375 c -5.71892,2.28239 -11.16555,5.46375 -15.36202,8.74926 -4.53665,3.55183 -8.0447,7.64278 -10.5953,12.17107 -3.79411,6.73597 -5.2361,14.87134 -4.23339,20.93956 0.87411,5.29 3.20413,10.61314 6.78004,13.92307 4.61597,4.27261 9.46298,5.32956 14.22572,5.30666 z"
                 id="path4504" />
            </g>
          </g>
          <g
             style="fill:#93c42e;fill-opacity:1"
             id="g4510" />
          <g
             style="fill:#93c42e;fill-opacity:1"
             id="g4512" />
          <g
             style="fill:#93c42e;fill-opacity:1"
             id="g4514" />
          <g
             style="fill:#93c42e;fill-opacity:1"
             id="g4516" />
          <g
             style="fill:#93c42e;fill-opacity:1"
             id="g4518" />
          <g
             style="fill:#93c42e;fill-opacity:1"
             id="g4520" />
          <g
             style="fill:#93c42e;fill-opacity:1"
             id="g4522" />
          <g
             style="fill:#93c42e;fill-opacity:1"
             id="g4524" />
          <g
             style="fill:#93c42e;fill-opacity:1"
             id="g4526" />
          <g
             style="fill:#93c42e;fill-opacity:1"
             id="g4528" />
          <g
             style="fill:#93c42e;fill-opacity:1"
             id="g4530" />
          <g
             style="fill:#93c42e;fill-opacity:1"
             id="g4532" />
          <g
             style="fill:#93c42e;fill-opacity:1"
             id="g4534" />
          <g
             style="fill:#93c42e;fill-opacity:1"
             id="g4536" />
          <g
             style="fill:#93c42e;fill-opacity:1"
             id="g4538" />
        </g>
        <g
           style="fill:#93c42e;fill-opacity:1"
           id="g14485"
           transform="translate(9.3484134,23.52852)" />
      </g>
      <g
         style="fill:#93c42e;fill-opacity:1"
         transform="translate(-11.240132,-10.773154)"
         id="g4584">
        <g
           style="opacity:1;fill:#93c42e;fill-opacity:1"
           transform="matrix(0.26458333,0,0,0.26458333,11.410457,45.187774)"
           id="g4580">
          <g
             style="fill:#93c42e;fill-opacity:1"
             transform="translate(-36.293701,-164.7636)"
             id="g4547">
            <g
               style="fill:#93c42e;fill-opacity:1"
               id="g4545">
              <path
                 id="path4543"
                 d="m 151.6421,175.33152 c 6.99237,-0.0336 15.02329,-5.73542 14.78762,-13.36579 -0.25884,-8.38082 -4.87624,-11.44749 -11.16378,-11.47038 -5.41814,-0.0197 -5.5195,1.14633 -9.08761,0.91933 -2.37294,-0.15096 -4.95687,-1.72518 -5.00777,-7.92282 -0.0613,-7.4614 5.15873,-12.61559 9.09246,-15.98401 2.57829,-2.20777 7.31934,-5.27131 10.56403,-7.1722 v -6.09375 c -5.71892,2.28239 -11.16555,5.46375 -15.36202,8.74926 -4.53665,3.55183 -8.0447,7.64278 -10.5953,12.17107 -3.79411,6.73597 -5.2361,14.87134 -4.23339,20.93956 0.87411,5.29 3.20413,10.61314 6.78004,13.92307 4.61597,4.27261 9.46298,5.32956 14.22572,5.30666 z"
                 style="opacity:1;fill:#93c42e;fill-opacity:1;stroke-width:1.00190735" />
            </g>
          </g>
          <g
             style="fill:#93c42e;fill-opacity:1"
             id="g4549" />
          <g
             style="fill:#93c42e;fill-opacity:1"
             id="g4551" />
          <g
             style="fill:#93c42e;fill-opacity:1"
             id="g4553" />
          <g
             style="fill:#93c42e;fill-opacity:1"
             id="g4555" />
          <g
             style="fill:#93c42e;fill-opacity:1"
             id="g4557" />
          <g
             style="fill:#93c42e;fill-opacity:1"
             id="g4559" />
          <g
             style="fill:#93c42e;fill-opacity:1"
             id="g4561" />
          <g
             style="fill:#93c42e;fill-opacity:1"
             id="g4563" />
          <g
             style="fill:#93c42e;fill-opacity:1"
             id="g4566" />
          <g
             style="fill:#93c42e;fill-opacity:1"
             id="g4568" />
          <g
             style="fill:#93c42e;fill-opacity:1"
             id="g4570" />
          <g
             style="fill:#93c42e;fill-opacity:1"
             id="g4572" />
          <g
             style="fill:#93c42e;fill-opacity:1"
             id="g4574" />
          <g
             style="fill:#93c42e;fill-opacity:1"
             id="g4576" />
          <g
             style="fill:#93c42e;fill-opacity:1"
             id="g4578" />
        </g>
        <g
           style="fill:#93c42e;fill-opacity:1"
           transform="translate(9.3484134,23.52852)"
           id="g4582" />
      </g>
    </g>
  </g>
</svg>
